<svg width="24" height="23" viewBox="0 0 24 23" fill="none" xmlns="http://www.w3.org/2000/svg">
<path d="M3 11.0942L5 9.24514M5 9.24514L12 2.77344L19 9.24514M5 9.24514V18.4904C5 19.001 5.44772 19.4149 6 19.4149H9M19 9.24514L21 11.0942M19 9.24514V18.4904C19 19.001 18.5523 19.4149 18 19.4149H15M9 19.4149C9.55228 19.4149 10 19.001 10 18.4904V14.7923C10 14.2817 10.4477 13.8678 11 13.8678H13C13.5523 13.8678 14 14.2817 14 14.7923V18.4904C14 19.001 14.4477 19.4149 15 19.4149M9 19.4149H15" stroke="currentColor" stroke-width="2" stroke-linecap="round" stroke-linejoin="round"/>
</svg>
