<svg width="28" height="28" viewBox="0 0 28 28" fill="none" xmlns="http://www.w3.org/2000/svg">
  <path d="M23.9167 12.5833H4.08333M23.9167 12.5833C25.4815 12.5833 26.75 13.8519 26.75 15.4167V23.9167C26.75 25.4815 25.4815 26.75 23.9167 26.75H4.08333C2.51853 26.75 1.25 25.4815 1.25 23.9167V15.4167C1.25 13.8519 2.51853 12.5833 4.08333 12.5833M23.9167 12.5833V9.75C23.9167 8.18519 22.6481 6.91667 21.0833 6.91667M4.08333 12.5833V9.75C4.08333 8.18519 5.35186 6.91667 6.91667 6.91667M6.91667 6.91667V4.08333C6.91667 2.51853 8.18519 1.25 9.75 1.25H18.25C19.8148 1.25 21.0833 2.51853 21.0833 4.08333V6.91667M6.91667 6.91667H21.0833" stroke="currentColor" stroke-width="1.75" stroke-linecap="round" stroke-linejoin="round"/>
</svg>
