<svg width="114" height="32" viewBox="0 0 114 32" fill="none" xmlns="http://www.w3.org/2000/svg">
<path d="M16.2412 3.43555L4.05078 29.709C3.74154 30.3646 3.46322 30.7913 3.21582 30.9893C2.89421 31.249 2.50456 31.3789 2.04688 31.3789C1.52734 31.3789 1.07585 31.1934 0.692383 30.8223C0.321289 30.4512 0.135742 30.0306 0.135742 29.5605C0.135742 29.2266 0.28418 28.738 0.581055 28.0947L12.8086 1.83984C13.1178 1.18424 13.39 0.757487 13.625 0.55957C13.959 0.299805 14.3486 0.169922 14.7939 0.169922C15.3135 0.169922 15.7588 0.355469 16.1299 0.726562C16.501 1.08529 16.6865 1.49967 16.6865 1.96973C16.6865 2.30371 16.5381 2.79232 16.2412 3.43555ZM35.4075 27V26.1094C34.455 26.6165 33.4036 26.9938 32.2532 27.2412C31.1028 27.501 30.0575 27.6309 29.1174 27.6309C27.0764 27.6309 25.4189 27.0928 24.1448 26.0166C22.8707 24.9281 22.2336 23.7282 22.2336 22.417C22.2336 20.8213 23.0439 19.3431 24.6643 17.9824C26.2971 16.6094 28.5484 15.9229 31.4182 15.9229C32.5686 15.9229 33.8983 16.0465 35.4075 16.2939V15.3848C35.4075 14.8158 35.1601 14.3519 34.6653 13.9932C34.1829 13.6344 33.2551 13.4551 31.8821 13.4551C30.7564 13.4551 29.2968 13.6777 27.5032 14.123C26.8352 14.2839 26.3157 14.3643 25.9446 14.3643C25.4374 14.3643 25.0045 14.1849 24.6457 13.8262C24.2994 13.4551 24.1262 12.985 24.1262 12.416C24.1262 12.0944 24.1881 11.8161 24.3118 11.5811C24.4355 11.346 24.6086 11.1605 24.8313 11.0244C25.0539 10.876 25.5178 10.7028 26.2229 10.5049C27.163 10.2451 28.1217 10.041 29.0989 9.89258C30.0761 9.73177 30.9605 9.65137 31.7522 9.65137C34.1148 9.65137 35.9455 10.1647 37.2444 11.1914C38.5556 12.2057 39.2112 13.5973 39.2112 15.3662V23.1963H39.8606C40.776 23.1963 41.4254 23.3757 41.8088 23.7344C42.2047 24.0807 42.4026 24.5384 42.4026 25.1074C42.4026 25.6641 42.2047 26.1217 41.8088 26.4805C41.4254 26.8268 40.776 27 39.8606 27H35.4075ZM35.4075 20.1904C33.886 19.8936 32.482 19.7451 31.1955 19.7451C29.6493 19.7451 28.3196 20.1224 27.2063 20.877C26.5136 21.3594 26.1672 21.848 26.1672 22.3428C26.1672 22.7015 26.3342 22.9922 26.6682 23.2148C27.2867 23.623 28.134 23.8271 29.2102 23.8271C30.1256 23.8271 31.1584 23.6478 32.3088 23.2891C33.4716 22.9303 34.5045 22.4417 35.4075 21.8232V20.1904ZM63.647 10.1523V23.1963C64.451 23.1963 65.0447 23.3757 65.4282 23.7344C65.8117 24.0931 66.0034 24.5508 66.0034 25.1074C66.0034 25.6641 65.8055 26.1217 65.4096 26.4805C65.0262 26.8268 64.3768 27 63.4614 27H59.8432V26.1279C58.7547 26.6227 57.7156 26.9938 56.7261 27.2412C55.7365 27.4886 54.7964 27.6123 53.9057 27.6123C52.6564 27.6123 51.574 27.3525 50.6587 26.833C49.7433 26.3011 49.0197 25.5713 48.4878 24.6436C48.1043 23.9756 47.9126 23.1406 47.9126 22.1387V13.9561H47.2632C46.3478 13.9561 45.6922 13.7829 45.2964 13.4365C44.9129 13.0778 44.7212 12.6139 44.7212 12.0449C44.7212 11.4883 44.9129 11.0368 45.2964 10.6904C45.6922 10.3317 46.3478 10.1523 47.2632 10.1523H51.7163V21.4707C51.7163 22.2747 51.908 22.8685 52.2915 23.252C52.6873 23.623 53.2873 23.8086 54.0913 23.8086C54.8582 23.8086 55.6808 23.6602 56.5591 23.3633C57.4497 23.054 58.5444 22.5036 59.8432 21.7119V13.9561H58.4702C57.5548 13.9561 56.8992 13.7829 56.5034 13.4365C56.1199 13.0778 55.9282 12.6139 55.9282 12.0449C55.9282 11.4883 56.1199 11.0368 56.5034 10.6904C56.8992 10.3317 57.5548 10.1523 58.4702 10.1523H63.647ZM78.2116 13.9561V21.582C78.2116 22.3984 78.3786 22.9365 78.7126 23.1963C79.2321 23.6045 80.1599 23.8086 81.4958 23.8086C83.4379 23.8086 85.2315 23.3942 86.8767 22.5654C87.5075 22.2438 88.0023 22.083 88.3611 22.083C88.8558 22.083 89.2826 22.2686 89.6413 22.6396C90.0124 23.0107 90.198 23.4622 90.198 23.9941C90.198 24.4889 90.0001 24.9157 89.6042 25.2744C88.9981 25.8558 87.7982 26.3939 86.0046 26.8887C84.2234 27.3711 82.7204 27.6123 81.4958 27.6123C79.1332 27.6123 77.3581 27.1051 76.1706 26.0908C74.9955 25.0641 74.4079 23.8086 74.4079 22.3242V13.9561H73.0349C72.1195 13.9561 71.4639 13.7829 71.0681 13.4365C70.6846 13.0778 70.4929 12.6139 70.4929 12.0449C70.4929 11.4883 70.6846 11.0368 71.0681 10.6904C71.4639 10.3317 72.1195 10.1523 73.0349 10.1523H74.4079V6.71973C74.4079 5.80436 74.5811 5.15495 74.9275 4.77148C75.2862 4.37565 75.7501 4.17773 76.3191 4.17773C76.8757 4.17773 77.3272 4.37565 77.6736 4.77148C78.0323 5.15495 78.2116 5.80436 78.2116 6.71973V10.1523H85.2439C86.1592 10.1523 86.8086 10.3317 87.1921 10.6904C87.5879 11.0368 87.7859 11.4945 87.7859 12.0635C87.7859 12.6201 87.5879 13.0778 87.1921 13.4365C86.8086 13.7829 86.1592 13.9561 85.2439 13.9561H78.2116ZM98.8066 2.93457V11.043C99.5983 10.5729 100.396 10.2266 101.2 10.0039C102.017 9.76888 102.839 9.65137 103.668 9.65137C104.979 9.65137 106.148 9.87402 107.175 10.3193C108.201 10.7646 109.049 11.4697 109.717 12.4346C110.397 13.387 110.737 14.5931 110.737 16.0527V23.1963C111.702 23.1963 112.333 23.2891 112.63 23.4746C113.224 23.8581 113.52 24.4023 113.52 25.1074C113.52 25.6641 113.329 26.1217 112.945 26.4805C112.562 26.8268 111.912 27 110.997 27H106.655C105.752 27 105.103 26.8268 104.707 26.4805C104.324 26.1217 104.132 25.6579 104.132 25.0889C104.132 24.3962 104.429 23.8581 105.022 23.4746C105.332 23.2767 105.963 23.1839 106.915 23.1963V16.3125C106.915 15.3353 106.692 14.6488 106.247 14.2529C105.666 13.721 104.806 13.4551 103.668 13.4551C102.827 13.4551 102.078 13.6221 101.423 13.9561C100.78 14.2777 99.9075 14.9827 98.8066 16.0713V23.1963C99.7838 23.1963 100.415 23.2891 100.699 23.4746C101.305 23.8581 101.608 24.4023 101.608 25.1074C101.608 25.6641 101.41 26.1217 101.015 26.4805C100.631 26.8268 99.9817 27 99.0664 27H94.7431C93.8278 27 93.1722 26.8268 92.7763 26.4805C92.3929 26.1217 92.2011 25.6579 92.2011 25.0889C92.2011 24.3962 92.5042 23.8581 93.1103 23.4746C93.4072 23.2767 94.038 23.1839 95.0029 23.1963V6.73828H94.3535C93.4381 6.73828 92.7825 6.5651 92.3867 6.21875C92.0032 5.86003 91.8115 5.39616 91.8115 4.82715C91.8115 4.27051 92.0032 3.81901 92.3867 3.47266C92.7825 3.11393 93.4381 2.93457 94.3535 2.93457H98.8066Z" fill="white"/>
</svg>
